<svg xmlns="http://www.w3.org/2000/svg" width="1920" height="1080">
  <defs>
    <pattern id="b" patternTransform="scale(10)" height="2" width="2" patternUnits="userSpaceOnUse">
      <path fill="#fff" d="M0 0h1v1H0zM1 1h1v1H1z"/>
    </pattern>
    <filter id="a" x="-.107" width="1.215" y="-.293" height="1.585" color-interpolation-filters="sRGB">
      <feGaussianBlur stdDeviation="85.413"/>
    </filter>
  </defs>
  <g fill-rule="evenodd" stroke="#ea8334" stroke-miterlimit="10" stroke-opacity=".152">
    <path fill="#051c2f" stroke-width="1.212" d="M0 0h1920v1080H0z"/>
    <path d="M7.303-21.353C5.13-10.973 6.118-9.2 7.791-8c3.788 2.715 219.074 158.433 478.415 346.04 259.34 187.608 472 341.106 472.576 341.106.741 0 849.844-618.697 946.52-689.68l8.28-6.08-1.55-4.738H7.303z" fill="#8abfe4" fill-opacity=".13" stroke-width="4.184" filter="url(#a)" transform="translate(0 27.638)"/>
    <path opacity=".059" fill="url(#b)" stroke-width="1.212" d="M0-27.638h1920v1080H0z" transform="translate(0 27.638)"/>
  </g>
</svg>
