<svg width="210" height="160" xmlns="http://www.w3.org/2000/svg">
  <g fill="none" fill-rule="evenodd">
    <g transform="translate(4.43 36)">
      <rect stroke="#546979" stroke-linecap="round" stroke-linejoin="round" fill="#F6FAFC" x="40.87" y=".603" width="117.803" height="86.795" rx="2.4"/>
      <path d="M1.202 44.5H188.57M12.564 25.5h188.197M12 64.699s105.217-.57 158.047-.57c10.09 0 30.714.57 30.714.57" stroke="#546979" stroke-linecap="round" stroke-linejoin="round" stroke-dasharray="2,4"/>
      <path fill="#F6FAFC" d="M63.71 19.288h72.124V74.74H63.71z"/>
      <g transform="translate(69.518 21.904)" stroke="#546979" stroke-linecap="round" stroke-linejoin="round">
        <rect fill="#F7A696" x="12.021" width="38.466" height="7.233" rx="19.2"/>
        <path d="M55.295 3.5h7.213M0 3.5h7.212"/>
        <rect fill="#73C9C9" x="12.021" y="19.288" width="38.466" height="7.233" rx="19.2"/>
        <rect fill="#ACD7F7" x="12.021" y="38.575" width="38.466" height="7.233" rx="19.2"/>
        <path d="M55.295 22.5h7.213M55.295 42.5h7.213M0 22.5h7.212M0 42.5h7.212"/>
      </g>
    </g>
    <text font-family="Proxima Nova" font-size="14.4" font-weight="260" fill="#546979" transform="translate(2 36)">
      <tspan x="197.383" y="49.164">$</tspan>
    </text>
    <text font-family="Proxima Nova" font-size="14.4" font-weight="260" fill="#546979" transform="translate(2 36)">
      <tspan x="0" y="69.658">€</tspan>
    </text>
    <text font-family="Proxima Nova" font-size="14.4" font-weight="260" fill="#546979" transform="translate(2 36)">
      <tspan x="1.202" y="28.877">¥ </tspan>
    </text>
  </g>
</svg>
