<svg width="210" height="160" xmlns="http://www.w3.org/2000/svg">
  <g transform="translate(5 36)" stroke="#546979" fill="none" fill-rule="evenodd">
    <path d="M.599 44.5h198.817" stroke-linecap="round" stroke-linejoin="round" stroke-dasharray="2,4"/>
    <rect stroke-linecap="round" stroke-linejoin="round" fill="#F6FAFC" x="38.021" y=".5" width="117.365" height="86" rx="2.4"/>
    <g stroke-linecap="round" stroke-linejoin="round">
      <path d="M66 29c-8.56 0-15.5 6.94-15.5 15.5C50.5 53.06 57.44 60 66 60c8.56 0 15.5-6.94 15.5-15.5"/>
      <path d="M60.751 39.365c.22-3 2.732-5.365 5.783-5.365h5.8v5.38c.664.128 1.166.716 1.166 1.408v.424c0 .705-.506 1.291-1.182 1.412A5.803 5.803 0 0 1 66.534 48a5.802 5.802 0 0 1-5.783-5.365 1.444 1.444 0 0 1-1.251-1.423v-.424c0-.729.54-1.33 1.251-1.423z" fill="#73C9C9"/>
      <path d="M63.5 49l-1.055 2.21h-2.51c-1.289 0-2.435 1.114-2.435 2.422V56m17 0v-2.386c0-1.316-1.008-2.387-2.252-2.387H69.52L68.5 49M80.5 31l-2.368 5-2.632-1.667"/>
    </g>
    <g transform="translate(92.5 18.5)">
      <path d="M.5.5v51.157M.843 26H52M3.843 5.5H7M3.843 10.5H7M3.843 15.5H7M3.843 20.5H7M3.843 30.5H7M3.843 35.5H7M3.843 40.5H7M3.843 45.5H7" stroke-linecap="round" stroke-linejoin="round"/>
      <rect stroke-linecap="round" stroke-linejoin="round" fill="#ACD7F7" x="25" y="14" width="5" height="9" rx="1"/>
      <rect stroke-linecap="round" stroke-linejoin="round" fill="#F7A696" x="35" y="1" width="5" height="22" rx="1"/>
      <rect stroke-linecap="round" stroke-linejoin="round" fill="#ACD7F7" x="45" y="6" width="5" height="17" rx="1"/>
      <rect stroke-linecap="square" fill="#FDE699" x="16" y="29" width="5" height="6" rx="1"/>
    </g>
  </g>
</svg>
