<svg width="210" height="160" xmlns="http://www.w3.org/2000/svg">
  <g transform="translate(39 12)" fill="none" fill-rule="evenodd">
    <rect stroke="#546979" stroke-linecap="round" stroke-linejoin="round" fill="#F6FAFC" x="15.067" y="24.908" width="117.365" height="86" rx="2.4"/>
    <g transform="translate(54.567 37.908)">
      <path d="M21.053 18c-.58 0-1.053.502-1.053 1.08v3.867c0 .579.473 1.053 1.053 1.053h3.866C25.5 24 26 23.526 26 22.947v-3.866c0-.579-.501-1.081-1.08-1.081h-3.867zm.028 1.105h3.818v3.817H21.08v-3.817zM29.058 18c-.582 0-1.058.502-1.058 1.08v3.867c0 .579.476 1.053 1.058 1.053h3.884c.582 0 1.058-.474 1.058-1.053v-3.866c0-.579-.476-1.081-1.058-1.081h-3.884zm.028 1.105h3.836v3.817h-3.836v-3.817zM36.08 18c-.579 0-1.08.502-1.08 1.08v3.867c0 .579.501 1.053 1.08 1.053h3.867c.579 0 1.053-.474 1.053-1.053v-3.866c0-.579-.474-1.081-1.053-1.081h-3.866zm.025 1.105h3.817v3.817h-3.817v-3.817zM44.052 18c-.579 0-1.052.502-1.052 1.08v3.867c0 .579.473 1.053 1.052 1.053h3.867C48.5 24 49 23.526 49 22.947v-3.866c0-.579-.501-1.081-1.08-1.081h-3.868zm.025 1.105h3.818v3.817h-3.818v-3.817zM52.058 18c-.582 0-1.058.502-1.058 1.08v3.867c0 .579.476 1.053 1.058 1.053h3.884c.582 0 1.058-.474 1.058-1.053v-3.866c0-.579-.476-1.081-1.058-1.081h-3.884zm.025 1.105h3.835v3.817h-3.835v-3.817zM5.057 26A1.06 1.06 0 0 0 4 27.058v3.884A1.06 1.06 0 0 0 5.057 32h3.885A1.06 1.06 0 0 0 10 30.942v-3.884A1.06 1.06 0 0 0 8.942 26H5.057zm.029 1.086H8.92v3.835H5.086v-3.835zM13.08 26c-.578 0-1.08.476-1.08 1.058v3.884c0 .582.502 1.058 1.08 1.058h3.867c.579 0 1.053-.476 1.053-1.058v-3.884c0-.582-.474-1.058-1.053-1.058h-3.866zm.028 1.086h3.818v3.835h-3.818v-3.835zM21.053 26c-.58 0-1.053.476-1.053 1.058v3.884c0 .582.473 1.058 1.053 1.058h3.866C25.5 32 26 31.524 26 30.942v-3.884c0-.582-.501-1.058-1.08-1.058h-3.867zm.028 1.086h3.818v3.835H21.08v-3.835z" fill="#546979"/>
      <rect stroke="#546979" fill="#F7A696" x="20" y="26" width="6" height="6" rx="1"/>
      <rect stroke="#546979" fill="#ACD7F7" x="4" y="42" width="6" height="6" rx="1"/>
      <rect fill="#73C9C9" x="43" y="34" width="6" height="6" rx="1"/>
      <rect fill="#FDE699" x="28" y="50" width="6" height="6" rx="1"/>
      <path d="M29.058 26A1.06 1.06 0 0 0 28 27.058v3.884A1.06 1.06 0 0 0 29.058 32h3.884A1.06 1.06 0 0 0 34 30.942v-3.884A1.06 1.06 0 0 0 32.942 26h-3.884zm.028 1.086h3.836v3.835h-3.836v-3.835zM36.08 26c-.579 0-1.08.476-1.08 1.058v3.884c0 .582.501 1.058 1.08 1.058h3.867c.579 0 1.053-.476 1.053-1.058v-3.884c0-.582-.474-1.058-1.053-1.058h-3.866zm.028 1.086h3.818v3.835h-3.818v-3.835zM44.052 26c-.579 0-1.052.476-1.052 1.058v3.884c0 .582.473 1.058 1.052 1.058h3.867C48.5 32 49 31.524 49 30.942v-3.884c0-.582-.501-1.058-1.08-1.058h-3.868zm.029 1.086h3.818v3.835H44.08v-3.835zM52.058 26c-.582 0-1.058.476-1.058 1.058v3.884c0 .582.476 1.058 1.058 1.058h3.884c.582 0 1.058-.476 1.058-1.058v-3.884c0-.582-.476-1.058-1.058-1.058h-3.884zm.028 1.086h3.835v3.835h-3.835v-3.835zM5.057 34A1.06 1.06 0 0 0 4 35.058v3.884A1.06 1.06 0 0 0 5.057 40h3.885A1.06 1.06 0 0 0 10 38.942v-3.884A1.06 1.06 0 0 0 8.942 34H5.057zm.025 1.086h3.836v3.835H5.082v-3.835zM13.08 34c-.578 0-1.08.476-1.08 1.058v3.884c0 .582.499 1.058 1.08 1.058h3.867c.579 0 1.053-.476 1.053-1.058v-3.884c0-.582-.474-1.058-1.053-1.058h-3.866zm.028 1.086h3.818v3.835h-3.818v-3.835zM21.053 34c-.58 0-1.053.476-1.053 1.058v3.884c0 .582.473 1.058 1.053 1.058h3.866C25.5 40 26 39.524 26 38.942v-3.884c0-.582-.501-1.058-1.08-1.058h-3.867zm.028 1.086h3.818v3.835H21.08v-3.835zM29.058 34A1.06 1.06 0 0 0 28 35.058v3.884c0 .582.476 1.058 1.058 1.058h3.884A1.06 1.06 0 0 0 34 38.942v-3.884A1.06 1.06 0 0 0 32.942 34h-3.884zm.028 1.086h3.836v3.835h-3.836v-3.835zM36.08 34c-.579 0-1.08.476-1.08 1.058v3.884c0 .582.499 1.058 1.08 1.058h3.867c.579 0 1.053-.476 1.053-1.058v-3.884c0-.582-.474-1.058-1.053-1.058h-3.866zm.025 1.086h3.817v3.835h-3.817v-3.835zM44.052 34c-.579 0-1.052.476-1.052 1.058v3.884c0 .582.473 1.058 1.052 1.058h3.867C48.5 40 49 39.524 49 38.942v-3.884c0-.582-.501-1.058-1.08-1.058h-3.868zm.025 1.086h3.818v3.835h-3.818v-3.835zM52.058 34A1.06 1.06 0 0 0 51 35.058v3.884c0 .582.476 1.058 1.058 1.058h3.884c.582 0 1.058-.476 1.058-1.058v-3.884A1.06 1.06 0 0 0 55.942 34h-3.884zm.028 1.086h3.835v3.835h-3.835v-3.835zM5.057 42C4.476 42 4 42.473 4 43.052v3.867C4 47.5 4.476 48 5.057 48h3.885C9.524 48 10 47.499 10 46.92v-3.868C10 42.473 9.524 42 8.942 42H5.057zm.029 1.08H8.92V46.9H5.086V43.08zM13.08 42c-.578 0-1.08.473-1.08 1.052v3.867c0 .58.502 1.081 1.08 1.081h3.867c.579 0 1.053-.501 1.053-1.08v-3.868c0-.579-.474-1.052-1.053-1.052h-3.866zm.028 1.08h3.818V46.9h-3.818V43.08zM21.053 42c-.58 0-1.053.473-1.053 1.052v3.867c0 .58.473 1.081 1.053 1.081h3.866C25.5 48 26 47.499 26 46.92v-3.868c0-.579-.501-1.052-1.08-1.052h-3.867zm.028 1.08h3.818V46.9H21.08V43.08zM29.058 42c-.582 0-1.058.473-1.058 1.052v3.867c0 .58.476 1.081 1.058 1.081h3.884c.582 0 1.058-.501 1.058-1.08v-3.868c0-.579-.476-1.052-1.058-1.052h-3.884zm.028 1.08h3.836V46.9h-3.836V43.08zM36.08 42c-.579 0-1.08.473-1.08 1.052v3.867c0 .58.501 1.081 1.08 1.081h3.867c.579 0 1.053-.501 1.053-1.08v-3.868c0-.579-.474-1.052-1.053-1.052h-3.866zm.028 1.08h3.818V46.9h-3.818V43.08zM44.052 42c-.579 0-1.052.473-1.052 1.052v3.867c0 .58.473 1.081 1.052 1.081h3.867C48.5 48 49 47.499 49 46.92v-3.868c0-.579-.501-1.052-1.08-1.052h-3.868zm.029 1.08h3.818V46.9H44.08V43.08zM52.058 42c-.582 0-1.058.473-1.058 1.052v3.867c0 .58.476 1.081 1.058 1.081h3.884c.582 0 1.058-.501 1.058-1.08v-3.868c0-.579-.476-1.052-1.058-1.052h-3.884zm.028 1.08h3.835V46.9h-3.835V43.08zM5.057 50C4.476 50 4 50.501 4 51.08v3.867C4 55.526 4.476 56 5.057 56h3.885C9.524 56 10 55.526 10 54.947v-3.866C10 50.5 9.524 50 8.942 50H5.057zm.029 1.105H8.92v3.817H5.086v-3.817zM13.08 50c-.578 0-1.08.501-1.08 1.08v3.867c0 .579.502 1.053 1.08 1.053h3.867c.579 0 1.053-.474 1.053-1.053v-3.866C18 50.5 17.526 50 16.947 50h-3.866zm.028 1.105h3.818v3.817h-3.818v-3.817zM21.053 50c-.58 0-1.053.501-1.053 1.08v3.867c0 .579.473 1.053 1.053 1.053h3.866C25.5 56 26 55.526 26 54.947v-3.866C26 50.5 25.499 50 24.92 50h-3.867zm.028 1.105h3.818v3.817H21.08v-3.817zM29.058 50c-.582 0-1.058.501-1.058 1.08v3.867c0 .579.476 1.053 1.058 1.053h3.884c.582 0 1.058-.474 1.058-1.053v-3.866C34 50.5 33.524 50 32.942 50h-3.884zm.028 1.105h3.836v3.817h-3.836v-3.817zM5 14v1h52v-1H5z" fill="#546979"/>
      <rect stroke="#546979" stroke-linecap="round" stroke-linejoin="round" x=".433" y="4.092" width="61" height="55" rx="3"/>
      <circle stroke="#546979" cx="11.933" cy="9.592" r="2.5"/>
      <circle stroke="#546979" cx="48.933" cy="9.592" r="2.5"/>
      <path d="M11.933 9.592v-9M48.933 9.592v-9" stroke="#546979" stroke-linecap="round" stroke-linejoin="round"/>
    </g>
    <circle fill="#F6FAFC" cx="14.567" cy="68.908" r="14"/>
    <path d="M28.247 65.908c1.3 5.755-1.427 11.868-6.938 14.619-5.465 2.728-11.92 1.279-15.742-3.134M2.872 71.908c-1.255-5.758 1.434-11.863 6.85-14.614 5.545-2.817 12.125-1.193 15.845 3.545" stroke="#546979" stroke-linecap="round" stroke-linejoin="round"/>
    <path d="M25.472 56.908l1.095 4.96-5 .04M6.662 81.908l-1.095-4.96 5-.04" stroke="#546979" stroke-linecap="round" stroke-linejoin="round"/>
    <path d="M15.022 75.908V74.31c-.93-.016-1.893-.301-2.455-.696l.386-1.062c.579.38 1.41.68 2.31.68 1.14 0 1.91-.649 1.91-1.551 0-.871-.627-1.41-1.813-1.885-1.635-.634-2.647-1.361-2.647-2.74 0-1.314.947-2.311 2.423-2.55v-1.598h.994v1.537c.962.03 1.62.284 2.085.554l-.4 1.044a3.919 3.919 0 0 0-2.023-.538c-1.235 0-1.7.729-1.7 1.361 0 .823.593 1.235 1.99 1.805 1.652.665 2.485 1.489 2.485 2.898 0 1.25-.882 2.423-2.535 2.691v1.646h-1.01v.002z" fill="#73C9C9"/>
    <path d="M40.5 1.408v134" stroke="#546979" stroke-linecap="round" stroke-linejoin="round" stroke-dasharray="2,4"/>
  </g>
</svg>
