<svg width="210" height="160" xmlns="http://www.w3.org/2000/svg">
  <g transform="translate(46 21)" fill="none" fill-rule="evenodd">
    <ellipse fill="#F8F7F5" cx="59.089" cy="58.5" rx="58.392" ry="58.5"/>
    <g stroke="#546979" stroke-width="1.558" stroke-linecap="round" stroke-linejoin="round">
      <g transform="translate(28.863 15.122)">
        <path d="M29.593 33.914V9.464M28.817 51.265v24.45"/>
        <ellipse fill="#ACD7F7" cx="29.593" cy="4.732" rx="4.656" ry="4.732"/>
        <ellipse fill="#ACD7F7" transform="rotate(-180 29.593 82.025)" cx="29.593" cy="82.025" rx="4.656" ry="4.732"/>
        <g transform="translate(1.66 14.197)">
          <ellipse fill="#F7A696" cx="54.315" cy="3.318" rx="3.104" ry="3.155"/>
          <ellipse fill="#FDE699" cx="3.104" cy="55.044" rx="3.104" ry="3.155"/>
          <path d="M34.917 22.872L51.229 6.291M5.431 52.843l18.162-18.195"/>
        </g>
        <g transform="rotate(-90 37.018 36.285)">
          <ellipse fill="#E9E7D1" cx="55.74" cy="3.605" rx="3.104" ry="3.155"/>
          <ellipse fill="#E9E7D1" cx="4.11" cy="55.66" rx="3.104" ry="3.155"/>
          <path d="M36.133 23.323L52.446 6.742M6.648 53.294l17.846-18.14"/>
        </g>
      </g>
      <g transform="rotate(-90 39.104 23.251)">
        <path d="M4.656 33.914V9.464M3.88 51.265v24.45"/>
        <ellipse fill="#ACD7F7" cx="4.656" cy="4.732" rx="4.656" ry="4.732"/>
        <ellipse fill="#ACD7F7" transform="rotate(-180 4.656 82.025)" cx="4.656" cy="82.025" rx="4.656" ry="4.732"/>
      </g>
    </g>
    <ellipse stroke="#546979" stroke-width="1.481" stroke-linecap="round" stroke-linejoin="round" fill="#73C9C9" cx="58" cy="58.5" rx="10" ry="10.5"/>
    <path d="M58 63.958c3.006 0 5.442-2.443 5.442-5.458s-2.436-5.458-5.443-5.458c-3.005 0-5.44 2.443-5.44 5.458s2.435 5.458 5.44 5.458zm-1.987-5.812l1.11 1.113 2.481-2.643.358-.38.76.722-.357.378-2.852 3.032-.366.392-1.5-1.505-.365-.37.73-.74z" fill="#FFF"/>
  </g>
</svg>
