<svg width="210" height="160" xmlns="http://www.w3.org/2000/svg">
  <g fill="none" fill-rule="evenodd">
    <g stroke="#546979" stroke-width=".9" transform="translate(39 28)">
      <path d="M95.887 100.858l12.673-36.634-30.93-11.01M5.458 47.71l43.667-10.4L32.75 17.127M127.968 37.923L96.43 27.524 108.56 3.67 68.531 4.893l9.098 47.098M67.32 4.893L47.911 37.311M17.588 74.01l36.995-9.786 8.491 31.806"/>
      <ellipse fill="#FDE699" cx="16.981" cy="74.622" rx="4.852" ry="4.893"/>
      <ellipse fill="#ECECED" cx="4.852" cy="47.709" rx="4.852" ry="4.893"/>
      <ellipse fill="#ACD7F7" cx="53.37" cy="64.835" rx="4.852" ry="4.893"/>
      <ellipse fill="#FDE699" cx="32.75" cy="18.35" rx="4.852" ry="4.893"/>
      <ellipse fill="#ACD7F7" cx="48.519" cy="37.923" rx="4.852" ry="4.893"/>
      <ellipse fill="#FDE699" cx="67.926" cy="4.893" rx="4.852" ry="4.893"/>
      <ellipse fill="#ECECED" cx="97.037" cy="28.136" rx="4.852" ry="4.893"/>
      <ellipse fill="#73C9C9" cx="77.63" cy="52.602" rx="4.852" ry="4.893"/>
      <ellipse fill="#FDE699" cx="107.954" cy="4.893" rx="4.852" ry="4.893"/>
      <ellipse fill="#FDE699" cx="126.148" cy="37.923" rx="4.852" ry="4.893"/>
      <ellipse fill="#FDE699" cx="63.074" cy="96.641" rx="4.852" ry="4.893"/>
      <ellipse fill="#FDE699" cx="95.826" cy="101.535" rx="4.852" ry="4.893"/>
      <ellipse fill="#FDE699" cx="107.954" cy="64.835" rx="4.852" ry="4.893"/>
    </g>
    <path d="M133.884 112.25l9.738-7.32 2.46 12.215-12.198-4.895zM70.42 105.196l-2.726-11.874 12.16 2.722-9.434 9.152zM111.45 52l8.55 9.694L108 64l3.45-12z" stroke="#546979" fill="#546979"/>
    <text font-family="Proxima Nova" font-size="14.556" font-weight="260" fill="#546979" transform="translate(39 28)">
      <tspan x="109" y="96">$</tspan>
    </text>
    <text font-family="Proxima Nova" font-size="14.556" font-weight="260" fill="#546979" transform="translate(39 28)">
      <tspan x="32" y="61">€</tspan>
    </text>
    <text transform="translate(115 37)" font-size="14.4" font-family="Proxima Nova" fill="#546979" font-weight="260">
      <tspan x="0" y="13">B</tspan>
    </text>
    <path d="M117.875 39.45v1.15M119.125 39.45v1.15M117.875 50.25v1.15M119.125 50.25v1.15" stroke="#546979" stroke-width=".6" stroke-linecap="round" stroke-linejoin="round"/>
  </g>
</svg>
