<svg width="210" height="160" xmlns="http://www.w3.org/2000/svg">
  <g transform="translate(31 34)" fill="none" fill-rule="evenodd">
    <path d="M73.218 42.457L101 84l-42.812-.457L37.693 42 9 66.196l20.495 17.347 43.723-41.086z" stroke="#546979" stroke-width=".8"/>
    <path d="M106.138 7L73 43h69L106.138 7z" stroke="#546979" stroke-width=".8"/>
    <ellipse stroke="#546979" stroke-width=".8" fill="#73C9C9" cx="73" cy="43.5" rx="8" ry="8.5"/>
    <path d="M73 48A5 5 0 1 0 73 38 5 5 0 0 0 73 48zm-1.826-5.325l1.02 1.02 2.28-2.421.329-.348.699.66-.329.348-2.62 2.777-.337.36-1.378-1.38-.336-.339.672-.677z" fill="#FFF"/>
    <ellipse stroke="#546979" stroke-width=".8" fill="#F7A696" cx="106" cy="8.5" rx="8" ry="8.5"/>
    <ellipse stroke="#546979" stroke-width=".8" fill="#FDE699" cx="140" cy="43.5" rx="8" ry="8.5"/>
    <ellipse stroke="#546979" stroke-width=".8" fill="#F6FAFC" cx="100" cy="83.5" rx="8" ry="8.5"/>
    <ellipse stroke="#546979" stroke-width=".8" fill="#D8D8D8" cx="59" cy="83.5" rx="8" ry="8.5"/>
    <ellipse stroke="#546979" stroke-width=".8" fill="#ACD7F7" cx="29" cy="83.5" rx="8" ry="8.5"/>
    <ellipse stroke="#546979" stroke-width=".8" fill="#F6FAFC" cx="8" cy="67.5" rx="8" ry="8.5"/>
    <ellipse stroke="#546979" stroke-width=".8" fill="#D8D8D8" cx="37" cy="43.5" rx="8" ry="8.5"/>
    <text font-family="Proxima Nova" font-size="15.573" font-weight="260" fill="#CFD8DC">
      <tspan x="106" y="70">DPOS</tspan>
    </text>
  </g>
</svg>
