<svg width="210" height="160" xmlns="http://www.w3.org/2000/svg" xmlns:xlink="http://www.w3.org/1999/xlink">
  <defs>
    <rect id="a" x="13.5" y=".5" width="11" height="11" rx="2"/>
    <rect id="b" x="26" y=".5" width="11" height="11" rx="2"/>
    <rect id="c" x="39" y=".5" width="11" height="11" rx="2"/>
    <rect id="d" x="13" y="13.5" width="11" height="11" rx="2"/>
    <rect id="e" x="39" y="13.5" width="11" height="11" rx="2"/>
    <rect id="f" x="101" y="26.5" width="11" height="11" rx="2"/>
    <rect id="g" x="101" y="39.5" width="11" height="11" rx="2"/>
    <rect id="h" x="13" y="39.5" width="11" height="11" rx="2"/>
    <rect id="i" x="88" y="26.5" width="11" height="11" rx="2"/>
    <rect id="j" x="88" y="39.5" width="11" height="11" rx="2"/>
    <rect id="k" x="39" y="39.5" width="11" height="11" rx="2"/>
    <rect id="l" x="114" y="39.5" width="11" height="11" rx="2"/>
    <rect id="m" x="114" y="26.5" width="11" height="11" rx="2"/>
    <rect id="n" x="13" y="52.5" width="11" height="11" rx="2"/>
    <rect id="o" x="88" y="52.5" width="11" height="11" rx="2"/>
    <rect id="p" x="26" y="52.5" width="11" height="11" rx="2"/>
    <rect id="q" x="39" y="52.5" width="11" height="11" rx="2"/>
    <rect id="r" x="13" y="65.5" width="11" height="11" rx="2"/>
    <rect id="s" y=".5" width="11" height="11" rx="2"/>
    <rect id="t" y="13.5" width="11" height="11" rx="2"/>
    <rect id="u" y="26.5" width="11" height="11" rx="2"/>
    <rect id="v" x="76" y="26.5" width="11" height="11" rx="2"/>
    <rect id="w" x="76" y="39.5" width="11" height="11" rx="2"/>
    <rect id="x" y="52.5" width="11" height="11" rx="2"/>
    <rect id="y" x="76" y="52.5" width="11" height="11" rx="2"/>
    <rect id="z" y="65.5" width="11" height="11" rx="2"/>
    <rect id="A" x="76" y="65.5" width="11" height="11" rx="2"/>
    <rect id="B" x="26" y="65.5" width="11" height="11" rx="2"/>
    <rect id="C" x="101" y="65.5" width="11" height="11" rx="2"/>
    <rect id="D" x="39" y="65.5" width="11" height="11" rx="2"/>
    <rect id="E" x="52" y=".5" width="11" height="11" rx="2"/>
    <rect id="F" x="52" y="13.5" width="11" height="11" rx="2"/>
    <rect id="G" x="52" y="26.5" width="11" height="11" rx="2"/>
    <rect id="H" x="127" y="26.5" width="11" height="11" rx="2"/>
    <rect id="I" x="127" y="39.5" width="11" height="11" rx="2"/>
    <rect id="J" x="52" y="52.5" width="11" height="11" rx="2"/>
    <rect id="K" x="127" y="52.5" width="11" height="11" rx="2"/>
    <rect id="L" x="52" y="65.5" width="11" height="11" rx="2"/>
    <rect id="M" x="127" y="65.5" width="11" height="11" rx="2"/>
  </defs>
  <g transform="translate(29 26)" fill="none" fill-rule="evenodd">
    <rect stroke="#546979" stroke-linecap="round" stroke-linejoin="round" fill="#FFF" x=".5" y="12.5" width="76" height="95" rx="2"/>
    <rect stroke="#546979" stroke-linecap="round" stroke-linejoin="round" fill="#FFF" x="75.5" y="38.5" width="76" height="69" rx="2"/>
    <rect stroke="#546979" fill="#ACD7F7" x="33" y="34.5" width="11" height="11" rx="2"/>
    <rect stroke="#546979" fill="#FDE699" x="20" y="47.5" width="11" height="11" rx="2"/>
    <rect stroke="#546979" fill="#FDE699" x="46" y="47.5" width="11" height="11" rx="2"/>
    <rect stroke="#546979" fill="#F7A696" x="33" y="60.5" width="11" height="11" rx="2"/>
    <rect stroke="#546979" fill="#FDE699" x="108" y="73.5" width="11" height="11" rx="2"/>
    <rect stroke="#546979" fill="#ACD7F7" x="95" y="86.5" width="11" height="11" rx="2"/>
    <rect stroke="#546979" fill="#F7A696" x="7" y="60.5" width="11" height="11" rx="2"/>
    <rect stroke="#546979" fill="#F7A696" x="121" y="86.5" width="11" height="11" rx="2"/>
    <rect stroke="#546979" fill="#F7A696" x="59" y="60.5" width="11" height="11" rx="2"/>
    <g transform="translate(7 21)">
      <rect stroke="#E0EDF5" x="26" y="26.5" width="11" height="11" rx="2"/>
      <rect stroke="#E0EDF5" x="114" y="52.5" width="11" height="11" rx="2"/>
      <use stroke="#E0EDF5" xlink:href="#a"/>
      <use xlink:href="#a"/>
      <use stroke="#E0EDF5" xlink:href="#b"/>
      <use xlink:href="#b"/>
      <use stroke="#E0EDF5" xlink:href="#c"/>
      <use xlink:href="#c"/>
      <use stroke="#E0EDF5" xlink:href="#d"/>
      <use xlink:href="#d"/>
      <use stroke="#E0EDF5" xlink:href="#e"/>
      <use xlink:href="#e"/>
      <use stroke="#E0EDF5" xlink:href="#f"/>
      <use xlink:href="#f"/>
      <use stroke="#E0EDF5" xlink:href="#g"/>
      <use xlink:href="#g"/>
      <use stroke="#E0EDF5" xlink:href="#h"/>
      <use xlink:href="#h"/>
      <use stroke="#E0EDF5" xlink:href="#i"/>
      <use xlink:href="#i"/>
      <use stroke="#E0EDF5" xlink:href="#j"/>
      <use xlink:href="#j"/>
      <use stroke="#E0EDF5" xlink:href="#k"/>
      <use xlink:href="#k"/>
      <use stroke="#E0EDF5" xlink:href="#l"/>
      <use xlink:href="#l"/>
      <use stroke="#E0EDF5" xlink:href="#m"/>
      <use xlink:href="#m"/>
      <use stroke="#E0EDF5" xlink:href="#n"/>
      <use xlink:href="#n"/>
      <use stroke="#E0EDF5" xlink:href="#o"/>
      <use xlink:href="#o"/>
      <use stroke="#E0EDF5" xlink:href="#p"/>
      <use xlink:href="#p"/>
      <use stroke="#E0EDF5" xlink:href="#q"/>
      <use xlink:href="#q"/>
      <use stroke="#E0EDF5" xlink:href="#r"/>
      <use xlink:href="#r"/>
      <use stroke="#E0EDF5" xlink:href="#s"/>
      <use xlink:href="#s"/>
      <use stroke="#E0EDF5" xlink:href="#t"/>
      <use xlink:href="#t"/>
      <g>
        <use stroke="#E0EDF5" xlink:href="#u"/>
        <use xlink:href="#u"/>
      </g>
      <g>
        <use stroke="#E0EDF5" xlink:href="#v"/>
        <use xlink:href="#v"/>
      </g>
      <g>
        <use stroke="#E0EDF5" xlink:href="#w"/>
        <use xlink:href="#w"/>
      </g>
      <g>
        <use stroke="#E0EDF5" xlink:href="#x"/>
        <use xlink:href="#x"/>
      </g>
      <g>
        <use stroke="#E0EDF5" xlink:href="#y"/>
        <use xlink:href="#y"/>
      </g>
      <g>
        <use stroke="#E0EDF5" xlink:href="#z"/>
        <use xlink:href="#z"/>
      </g>
      <g>
        <use stroke="#E0EDF5" xlink:href="#A"/>
        <use xlink:href="#A"/>
      </g>
      <g>
        <use stroke="#E0EDF5" xlink:href="#B"/>
        <use xlink:href="#B"/>
      </g>
      <g>
        <use stroke="#E0EDF5" xlink:href="#C"/>
        <use xlink:href="#C"/>
      </g>
      <g>
        <use stroke="#E0EDF5" xlink:href="#D"/>
        <use xlink:href="#D"/>
      </g>
      <g>
        <use stroke="#E0EDF5" xlink:href="#E"/>
        <use xlink:href="#E"/>
      </g>
      <g>
        <use stroke="#E0EDF5" xlink:href="#F"/>
        <use xlink:href="#F"/>
      </g>
      <g>
        <use stroke="#E0EDF5" xlink:href="#G"/>
        <use xlink:href="#G"/>
      </g>
      <g>
        <use stroke="#E0EDF5" xlink:href="#H"/>
        <use xlink:href="#H"/>
      </g>
      <g>
        <use stroke="#E0EDF5" xlink:href="#I"/>
        <use xlink:href="#I"/>
      </g>
      <g>
        <use stroke="#E0EDF5" xlink:href="#J"/>
        <use xlink:href="#J"/>
      </g>
      <g>
        <use stroke="#E0EDF5" xlink:href="#K"/>
        <use xlink:href="#K"/>
      </g>
      <g>
        <use stroke="#E0EDF5" xlink:href="#L"/>
        <use xlink:href="#L"/>
      </g>
      <g>
        <use stroke="#E0EDF5" xlink:href="#M"/>
        <use xlink:href="#M"/>
      </g>
    </g>
    <path d="M33.5 45l-3 3M46.5 58l-3 3M30.5 58l3 3M20.5 58l-3 3M59.5 61l-3-3M122 87l-3-3M105 87l3-3M43.5 45l3 3" stroke="#546979" stroke-linecap="square"/>
    <path d="M126 36.893V26.504M121 36.893v-6.111M25 10.893V.504M20 10.893V4.782M30.1 10.893V7.5" stroke="#627584" stroke-linecap="round" stroke-linejoin="round"/>
  </g>
</svg>
