<svg width="210" height="160" xmlns="http://www.w3.org/2000/svg">
  <g transform="translate(7 34)" stroke-linecap="round" stroke="#546979" stroke-linejoin="round" fill="none" fill-rule="evenodd">
    <path d="M1.099 45h198.817" stroke-dasharray="2,4"/>
    <rect fill="#F6FAFC" x="40.021" y=".5" width="117.365" height="86" rx="2.4"/>
    <path fill="#F7A696" d="M89 62h9v24h-9z"/>
    <path fill="#ACD7F7" d="M106 40h9v46h-9z"/>
    <path fill="#FDE699" d="M122 28h9v58h-9z"/>
    <path d="M137 38.5h12M84 53.5h12M137 45.5h6"/>
    <g stroke-width="1.5">
      <path d="M92.5 32.431c0-11.184-9.178-20.25-20.5-20.25s-20.5 9.066-20.5 20.25 41 11.184 41 0z" fill="#FFF"/>
      <path d="M75.037 40.75c0-1.657-1.36-3-3.037-3-1.677 0-3.037 1.343-3.037 3"/>
      <path d="M87.185 32.5c0-8.284-6.798-15-15.185-15s-15.185 6.716-15.185 15" stroke-dasharray="1,4"/>
      <path d="M73.519 35.5l5.314-12.75"/>
    </g>
  </g>
</svg>
