<svg width="210" height="160" xmlns="http://www.w3.org/2000/svg">
  <g fill="none" fill-rule="evenodd">
    <g transform="translate(46 34.5)">
      <rect stroke="#546979" stroke-linecap="round" stroke-linejoin="round" fill="#F6FAFC" x=".021" y=".5" width="117.365" height="86" rx="2.4"/>
      <g stroke="#546979" stroke-linecap="round" stroke-linejoin="round">
        <path d="M28 29c-8.56 0-15.5 6.94-15.5 15.5C12.5 53.06 19.44 60 28 60c8.56 0 15.5-6.94 15.5-15.5"/>
        <path d="M22.751 39.365c.22-3 2.732-5.365 5.783-5.365h5.8v5.38c.664.128 1.166.716 1.166 1.408v.424c0 .705-.506 1.291-1.182 1.412A5.803 5.803 0 0 1 28.534 48a5.802 5.802 0 0 1-5.783-5.365 1.444 1.444 0 0 1-1.251-1.423v-.424c0-.729.54-1.33 1.251-1.423z" fill="#73C9C9"/>
        <path d="M25.5 49l-1.055 2.21h-2.51c-1.289 0-2.435 1.114-2.435 2.422V56m17 0v-2.386c0-1.316-1.008-2.387-2.252-2.387H31.52L30.5 49M42.5 31l-2.368 5-2.632-1.667"/>
      </g>
    </g>
    <g stroke="#546979">
      <path d="M103.5 13.408v134" stroke-linecap="round" stroke-linejoin="round" stroke-dasharray="2,4"/>
      <g transform="translate(118 62.5)" stroke-width=".855">
        <path d="M3.882 31.68c8.22 0 14.883-6.796 14.883-15.18S12.102 1.32 3.882 1.32"/>
        <path d="M3.882 27.06c5.718 0 10.353-4.728 10.353-10.56 0-5.832-4.635-10.56-10.353-10.56v21.12z" fill="#FDE699"/>
        <path d="M7.765 16.5h24.588M6.47 13.2L23.942 1.32"/>
        <path d="M29.081 12.803l3.734 3.734-3.66 3.66M18.77.15l5.124 1.277L22.64 6.45" stroke-linecap="round"/>
        <path d="M6.47 19.8l17.471 11.88"/>
        <path d="M18.77 32.85l5.124-1.277-1.253-5.023" stroke-linecap="round"/>
        <ellipse fill="#73C9C9" cx="3.882" cy="16.5" rx="3.882" ry="3.96"/>
      </g>
    </g>
  </g>
</svg>
