<svg width="210" height="160" xmlns="http://www.w3.org/2000/svg">
  <g fill="none" fill-rule="evenodd">
    <g stroke-width="1.08" stroke-linecap="round" stroke-dasharray="4,4">
      <path d="M85.133 88.15c-27.78 2.698-47.948 10.778-47.948 20.327 0 11.757 30.572 21.288 68.286 21.288 37.713 0 68.286-9.53 68.286-21.288 0-9.5-19.965-17.548-47.53-20.287" stroke="#546979"/>
      <path d="M83.519 97.084C63.109 98.832 48.7 103.088 48.7 108.06c0 6.531 24.858 11.826 55.522 11.826 30.664 0 55.522-5.295 55.522-11.826 0-4.911-14.052-9.123-34.058-10.91" stroke="#73C9C9"/>
    </g>
    <path fill="#FFF" d="M79 85h52v20H79z"/>
    <g stroke="#546979" stroke-linecap="round" stroke-linejoin="round">
      <path d="M82.293 74.5h43l-2.774 32H85.067l-2.774-32z" fill="#ECECED"/>
      <path fill="#FDE699" d="M78.293 64.5h52v13h-52z"/>
      <path d="M103.293 64.5s2.238-12.391 11-18" stroke-width="1.5"/>
      <path d="M103.886 52.558c2.393-2.08 1.605-6.907-1.761-10.78-3.366-3.871-10.43-3.243-10.43-3.243s-1.605 6.907 1.761 10.78c3.366 3.872 8.036 5.324 10.43 3.243z" stroke-width="1.5" fill="#ACD7F7"/>
      <g stroke-width="1.5">
        <path d="M124.043 30.302v2.736M124.043 52.196v2.737M119.293 47.407c0 2.645 2.238 4.79 5 4.79 2.761 0 5-2.145 5-4.79s-2.239-4.79-5-4.79"/>
        <path d="M129.293 37.828c0-2.645-2.239-4.79-5-4.79-2.762 0-5 2.145-5 4.79s2.238 4.79 5 4.79"/>
      </g>
    </g>
  </g>
</svg>
