<svg width="26" height="32" xmlns="http://www.w3.org/2000/svg">
  <g fill="#D3D7D9" fill-rule="evenodd">
    <path d="M9.965 6.321c-.41.112-.466.9-.281 1.282.2.41.344.607.469.718.25-.198.475-.403.75-.562 0-.14.005-.289 0-.438-.03-.819-.5-1.12-.938-1zM14.278 6.259c-.394-.046-.86.252-.875.812-.01.321-.013.576.093.782.263.111.521.225.782.343.364-.074.733-.345.75-.75.034-.817-.282-1.133-.75-1.187zM12.09 7.665c-.205-.013-.437.032-.812.219-.566.281-1.158.777-1.594 1.187a.82.82 0 0 0-.219.407c-.028.14-.01.222.063.28.054.044.05.047.062.063.013.017.018.044.031.063.015.014.016.047.032.062.016.021.04.031.062.063.303.284.712.592 1.375.656.835.081 2.088-.254 4-1.531a.061.061 0 0 1 .031 0 .061.061 0 0 1 .032 0 .061.061 0 0 1 0 .031.061.061 0 0 1 .03 0 .061.061 0 0 1 0 .031.061.061 0 0 1 0 .032.061.061 0 0 1-.03 0 .061.061 0 0 1 0 .03c-1.925 1.286-3.188 1.586-4.063 1.5a2.264 2.264 0 0 1-1.031-.343c.006.008-.006.024 0 .031.267.345.63.781 1.062 1.125.136.108.528.156.97.094.44-.062.929-.233 1.218-.437.619-.439 1.056-.62 1.531-.938.17-.114.329-.22.438-.344a.643.643 0 0 0 .187-.468c.004-.204.002-.286-.031-.344-.033-.059-.158-.163-.5-.313-.705-.308-1.426-.677-2.125-.937-.278-.104-.514-.206-.719-.219zM9.298 28.203c.727.688 1.938.666 2.948.626 2.267-.089 3.714-1.227 5.261-2.711 0 .359-.047 1.254-.266 2.296-.281 1.338-.158 1.908-.096 2.267-.648-.312-.77-.3-1.586-.297-1.112.003-2.182-.014-3.266 0-.915.011-1.655.061-2.694.538.711-1.149.379-1.797-.3-2.719z"/>
    <path d="M12.559.696c-.716.034-1.374.19-1.844.407-1.141.525-2.04 1.256-2.219 2.875-.137 1.253.069 2.645.094 3.906.05 2.478.164 2.894.156 3.125-.016.5-2.433 3.356-2.812 4.281-.438 1.07-.909 2.05-1.313 3.219-.181.526-.46.993-.75 1.469-.168.275-.487.407-.468.937.013.375.051.75.03 1.125-.01.202.157.375.157.375-.043-.053.49-.64.938-.531.771.188 1.44 1.066 1.406 1.062 0 0-.416-2.408.687-4.843.48-1.06 1.008-1.959 1.25-3.032.19-.84.79-1.796.938-1.968.547-.642.625-.989.594-1.75-.01-.22.125-1.094.125-1.094s-.098-.214-.188-.281c-.271-.205-.207-.598-.01-.925.107-.178.435-.445.435-.445-.214-.35-.6-.768-.53-2.199.027-.57.356-1.311 1.168-1.203.376.05.854.635.976 1.317.057.324.053.986.053.986.488-.198 1.012-.098 1.417.077 0 0-.285-.699-.158-1.296.082-.387.482-.903 1.243-1.184.403-.15.982-.1 1.2.27.218.37.408.756.56 1.157.056.149.134.3.127.46-.014.352-.02.669-.203 1.012-.114.216-.42.6-.42.6s.592.236.55.706c-.026.308.014.534-.283.885.203.125.485.851 1 2.031.361.827.592 1.671.906 2.5.31.818.891 1.516 1.188 2.313.933 2.506.45 5.411.281 5.531h.344a.061.061 0 0 1 0-.031c.285-.375.6-.586.937-.719.914-1.425.99-2.777.625-3.906-.364-1.13-1.188-2.02-2.187-2.531a.061.061 0 0 1 0-.032.061.061 0 0 1-.031 0 .061.061 0 0 1 0-.03.061.061 0 0 1 0-.032.06.06 0 0 1 .03-.031.061.061 0 0 1 .032 0 .061.061 0 0 1 .031 0c1.026.525 1.907 1.43 2.282 2.593.371 1.153.374 2.47-.532 3.907.305-.078.633-.13.938-.094.365.044.673.174.937.312.265.139.481.305.563.47.051.103-.106.306-.25.187-.105-.087-.249-.307-.5-.438-.251-.13-.526-.27-.875-.312-.699-.085-1.329-.043-1.906.718a.061.061 0 0 1 0 .032.061.061 0 0 1-.032 0c0 .002-.03-.003-.03 0-.34 1.035.194 1.719.874 1.906 1.785.491 2.755-1.408 2.813-1.625l.375.031c.343-.672.544-1.923.343-2.875-.224-1.067-.448-2.004-.875-3.062-.46-1.14-.784-1.99-1.906-3.156-.715-.744-1.26-1.776-1.687-2.594-.205-.393-.447-.629-.657-1.156-.315-.795-.391-1.677-.406-2.532-.038-2.255-.294-4.567-2.125-6C15.1.895 13.752.64 12.56.696z"/>
    <path d="M4.403 22.384c-.067 0-.128.017-.282.187-.204.228-.557.921-.906 1.375-.698.739-1.72.765-2.503.945a.4.4 0 0 0-.31.493c.2.93.167 1.505.126 2.312-.027.51-.16.782-.196 1.282-.092.288.154.4.352.414 1.076.326 1.98.535 3.062.804 1.083.27 2.029.511 2.72.875.786.415 1.278.44 1.874.219.531-.197 1.055-.784 1.125-1.281.076-.541-.036-.715-.312-1.125-1.436-2.134-2.016-3.406-3.47-5.469-.287-.408-.577-.707-1.03-.969a.527.527 0 0 0-.25-.062zM18.403 22.978c-.204-.008-.353.028-.407.062-.054.034-.067.03-.062.25.02.968.052 2.258 0 3.406-.065 1.441-.608 2.764-.375 3.907.051.252.141.44.312.593.172.154.471.283.97.344 1.129.139 1.87-.416 2.562-1.156.76-.813 1.632-1.319 2.5-1.781.725-.388 1.241-.499 1.78-1.094a.47.47 0 0 0 .126-.281c-.001-.08-.01-.13-.156-.22-1.36-.82-2.303-1.886-2.313-3.124-.002-.277.006-.334 0-.5-.003-.089-.147-.14-.219-.031-.118.18-.292.5-.53.78-.472.553-1.017.796-1.5.876-.485.08-.895.006-1.126-.063-.794-.236-1.176-.846-1.25-1.375-.038-.271.028-.395.063-.593-.126-.005-.082.01-.375 0z"/>
  </g>
</svg>
