<svg width="26" height="30" xmlns="http://www.w3.org/2000/svg">
  <path d="M7.945 29.256c-1.106-.37-2.286-1.387-3.51-3.026-1.883-2.524-2.995-5.12-3.42-7.986-.142-.96-.197-2.804-.109-3.653.224-2.16.948-3.86 2.218-5.209a7.083 7.083 0 0 1 4.1-2.168c1.138-.178 2.195-.15 3.106.083.223.057.853.283 1.4.501.545.22 1.122.426 1.28.46.436.094.979.03 1.578-.184l1.204-.43c1.043-.372 1.544-.462 2.758-.495.828-.023 1.158-.01 1.625.063 1.583.247 2.884.911 4.036 2.06.315.315.572.606.572.648 0 .041-.341.409-.759.816-.914.89-1.165 1.182-1.552 1.798-.58.924-.837 1.845-.842 3.019-.004 1.08.178 1.887.624 2.77.535 1.06 1.595 2.103 2.879 2.833.216.123.403.25.415.283.09.232-.856 2.367-1.535 3.465-1.051 1.703-2.455 3.22-3.633 3.93-.605.364-.963.48-1.575.508-.664.03-1.052-.055-2.36-.52a21.318 21.318 0 0 0-1.36-.445c-1.253-.303-2.243-.225-3.696.292l-1.286.458c-.482.172-.597.192-1.199.209-.54.015-.721 0-.96-.08zM13.36 7.61c-.144-.024-.288-.07-.32-.103-.039-.04-.058-.34-.054-.87.005-.95.094-1.352.47-2.146.32-.676.705-1.22 1.307-1.85 1.11-1.16 2.249-1.778 3.7-2.011.562-.09.566-.085.566.806 0 .98-.215 1.925-.616 2.718-.443.876-1.419 1.993-2.223 2.544-.539.369-1.288.72-1.833.858-.462.117-.583.124-.997.054z" fill="#D3D7D9" fill-rule="evenodd"/>
</svg>
