<?xml version="1.0" encoding="UTF-8"?>
<!DOCTYPE svg PUBLIC "-//W3C//DTD SVG 1.1//EN" "http://www.w3.org/Graphics/SVG/1.1/DTD/svg11.dtd">
<!-- Creator: CorelDRAW X8 -->
<svg xmlns="http://www.w3.org/2000/svg" xml:space="preserve" width="250px" height="250px" version="1.1" style="shape-rendering:geometricPrecision; text-rendering:geometricPrecision; image-rendering:optimizeQuality; fill-rule:evenodd; clip-rule:evenodd"
viewBox="0 0 1124 1124"
 xmlns:xlink="http://www.w3.org/1999/xlink">
 <defs>
  <style type="text/css">
   <![CDATA[
    .fil0 {fill:orangered}
    .fil1 {fill:white}
   ]]>
  </style>
 </defs>
 <g id="Layer_x0020_1">
  <metadata id="CorelCorpID_0Corel-Layer"/>
  <g id="_2351310475792">
   <path class="fil0" d="M768 213c9,-9 14,-29 48,-35 78,-14 110,96 38,126 -37,16 -80,-4 -90,-44 -4,-14 1,-12 -5,-14l-136 -29 -41 199c53,5 92,9 139,25 27,8 60,23 84,38 6,3 20,14 25,15 7,-4 12,-12 33,-19 76,-28 145,48 119,118 -12,34 -27,39 -48,55 -2,10 1,28 0,40 -5,75 -55,135 -114,175 -173,116 -484,93 -599,-84 -11,-15 -20,-36 -25,-57 -8,-29 -6,-45 -4,-75 -56,-28 -70,-90 -39,-136 23,-35 69,-52 109,-36 10,4 26,13 32,20 12,-5 60,-50 178,-71 36,-7 45,-5 75,-8 4,-16 7,-34 11,-51l32 -151c3,-18 3,-37 27,-33 23,4 141,32 151,32zm-235 -212c-83,4 -159,26 -223,58 -57,29 -73,44 -115,78 -4,2 -6,5 -10,8 -4,3 -5,5 -9,8l-26 27c-5,4 -11,13 -16,18 -36,40 -73,103 -93,153 -29,72 -45,154 -40,240 16,301 271,549 591,532 300,-16 547,-271 531,-590 -6,-114 -47,-224 -112,-309 -15,-19 -24,-30 -40,-48 -3,-3 -6,-5 -9,-8 -108,-113 -270,-176 -429,-167z"/>
   <path class="fil1" d="M412 776c10,-3 14,2 20,7 41,33 107,39 159,35 32,-3 62,-10 87,-24 7,-5 10,-7 16,-13 13,-12 32,-5 31,13 -1,9 -7,12 -12,16 -38,36 -114,47 -179,42 -33,-3 -62,-9 -90,-21 -14,-5 -26,-13 -35,-21 -10,-10 -17,-28 3,-34zm-7 -213c40,-7 71,23 76,56 7,39 -22,70 -54,75 -41,7 -71,-22 -77,-55 -6,-40 23,-70 55,-76zm293 0c40,-7 71,23 76,56 6,39 -22,70 -55,75 -40,8 -71,-22 -76,-55 -7,-40 22,-70 55,-76zm70 -350c-10,0 -128,-28 -151,-32 -24,-4 -24,15 -27,33l-32 151c-4,17 -7,35 -11,51 -30,3 -39,1 -75,8 -118,21 -166,66 -178,71 -6,-7 -22,-16 -32,-20 -40,-16 -86,1 -109,36 -31,46 -17,108 39,136 -2,30 -4,46 4,75 5,21 14,42 25,57 115,177 426,200 599,84 59,-40 109,-100 114,-175 1,-12 -2,-30 0,-40 21,-16 36,-21 48,-55 26,-70 -43,-146 -119,-118 -21,7 -26,15 -33,19 -5,-1 -19,-12 -25,-15 -24,-15 -57,-30 -84,-38 -47,-16 -86,-20 -139,-25l41 -199 136 29c6,2 1,0 5,14 10,40 53,60 90,44 72,-30 40,-140 -38,-126 -34,6 -39,26 -48,35z"/>
   <path class="fil0" d="M405 563c-32,6 -61,36 -55,76 6,33 36,62 77,55 32,-5 61,-36 54,-75 -5,-33 -36,-63 -76,-56z"/>
   <path class="fil0" d="M698 563c-33,6 -62,36 -55,76 5,33 36,63 76,55 33,-5 61,-36 55,-75 -5,-33 -36,-63 -76,-56z"/>
   <path class="fil0" d="M412 776c-20,6 -13,24 -3,34 9,8 21,16 35,21 28,12 57,18 90,21 65,5 141,-6 179,-42 5,-4 11,-7 12,-16 1,-18 -18,-25 -31,-13 -6,6 -9,8 -16,13 -25,14 -55,21 -87,24 -52,4 -118,-2 -159,-35 -6,-5 -10,-10 -20,-7z"/>
  </g>
 </g>
</svg>
