<?xml version="1.0" encoding="UTF-8"?>
<!DOCTYPE svg PUBLIC "-//W3C//DTD SVG 1.1//EN" "http://www.w3.org/Graphics/SVG/1.1/DTD/svg11.dtd">
<!-- Creator: CorelDRAW X8 -->
<svg xmlns="http://www.w3.org/2000/svg" xml:space="preserve" width="528px" height="537px" version="1.1" style="shape-rendering:geometricPrecision; text-rendering:geometricPrecision; image-rendering:optimizeQuality; fill-rule:evenodd; clip-rule:evenodd"
viewBox="0 0 869 885"
 xmlns:xlink="http://www.w3.org/1999/xlink">
 <defs>
  <style type="text/css">
   <![CDATA[
    .fil0 {fill:#06D6A9}
   ]]>
  </style>
 </defs>
 <g id="Layer_x0020_1">
  <metadata id="CorelCorpID_0Corel-Layer"/>
  <path class="fil0" d="M255 515c0,-130 110,-254 240,-254l41 0c120,0 240,112 240,233 0,102 -16,179 -103,240 -189,135 -382,32 -439,27 11,-39 55,-64 53,-108 -1,-28 -32,-55 -32,-138zm126 -515l78 0c83,5 165,23 234,49 20,8 47,21 69,26 -19,18 -42,22 -72,44 -25,19 -37,40 -51,66 24,12 33,14 55,27 323,194 166,673 -206,673l-62 0c-94,0 -335,-68 -370,-117 52,-12 118,-52 130,-103 -142,-95 -194,-170 -185,-336 0,-95 72,-192 125,-238 69,-58 156,-89 255,-91z"/>
 </g>
</svg>
