<?xml version="1.0" encoding="UTF-8"?>
<!DOCTYPE svg PUBLIC "-//W3C//DTD SVG 1.1//EN" "http://www.w3.org/Graphics/SVG/1.1/DTD/svg11.dtd">
<!-- Creator: CorelDRAW X8 -->
<svg xmlns="http://www.w3.org/2000/svg" xml:space="preserve" width="625px" height="508px" version="1.1" style="shape-rendering:geometricPrecision; text-rendering:geometricPrecision; image-rendering:optimizeQuality; fill-rule:evenodd; clip-rule:evenodd"
viewBox="0 0 218 177"
 xmlns:xlink="http://www.w3.org/1999/xlink">
 <defs>
  <style type="text/css">
   <![CDATA[
    .fil0 {fill:#3AAAE1}
   ]]>
  </style>
 </defs>
 <g id="Layer_x0020_1">
  <metadata id="CorelCorpID_0Corel-Layer"/>
  <path id="twitter.svg" class="fil0" d="M218 21c-8,4 -17,6 -26,7 10,-6 17,-14 20,-25 -9,5 -18,9 -28,11 -9,-9 -20,-14 -33,-14 -25,0 -45,20 -45,45 0,3 1,7 1,10 -37,-2 -70,-20 -92,-47 -4,7 -6,14 -6,23 0,15 8,29 20,37 -7,0 -14,-2 -20,-6 0,0 0,1 0,1 0,22 15,40 36,44 -4,1 -8,1 -12,1 -3,0 -6,0 -9,-1 6,18 23,31 42,32 -15,12 -34,19 -55,19 -4,0 -8,-1 -11,-1 20,13 43,20 69,20 82,0 127,-68 127,-127 0,-2 0,-4 0,-6 8,-6 16,-14 22,-23l0 0z"/>
 </g>
</svg>
