<?xml version="1.0" encoding="UTF-8"?>
<!DOCTYPE svg PUBLIC "-//W3C//DTD SVG 1.1//EN" "http://www.w3.org/Graphics/SVG/1.1/DTD/svg11.dtd">
<!-- Creator: CorelDRAW X8 -->
<svg xmlns="http://www.w3.org/2000/svg" xml:space="preserve" width="562px" height="563px" version="1.1" style="shape-rendering:geometricPrecision; text-rendering:geometricPrecision; image-rendering:optimizeQuality; fill-rule:evenodd; clip-rule:evenodd"
viewBox="0 0 167 167"
 xmlns:xlink="http://www.w3.org/1999/xlink">
 <defs>
  <style type="text/css">
   <![CDATA[
    .fil8 {fill:#1E4F86}
    .fil5 {fill:#2D6199}
    .fil6 {fill:#305E92}
    .fil3 {fill:#3977B8}
    .fil2 {fill:#3D89D4}
    .fil4 {fill:#428BD2}
    .fil1 {fill:#B8C2E7}
    .fil0 {fill:#F6F9FD}
    .fil7 {fill:#F7FBFE}
    .fil9 {fill:white}
   ]]>
  </style>
 </defs>
 <g id="Layer_x0020_1">
  <metadata id="CorelCorpID_0Corel-Layer"/>
  <path class="fil0" d="M33 19l0 -1c8,-6 15,-10 27,-13 11,-4 23,-5 35,-3 22,4 44,17 51,30 2,0 1,0 3,2 0,1 1,3 2,3 1,3 1,6 1,10 1,21 -4,42 -20,47 2,-10 1,-19 -3,-29 -3,-8 -9,-16 -15,-20 -7,-3 -10,-7 -19,-9 -13,11 -13,2 -27,2 -14,1 -13,6 -27,0 -32,22 -36,38 -35,73 -9,-11 -5,-41 -1,-55 5,-15 19,-33 28,-37zm42 -19l17 0c4,0 7,1 10,2 19,5 47,21 51,36 5,37 -7,70 -48,58 -16,-5 -22,-14 -35,-20 -12,-7 -30,-11 -42,-2l-1 1c-15,9 -17,34 -13,55 -4,-3 -4,-5 -8,-13 -3,-6 -5,-14 -6,-22l0 -26c0,-2 0,-3 1,-4 2,-10 7,-20 12,-28 2,-4 5,-8 8,-11 7,-6 7,-9 12,-8 0,-2 -2,-2 5,-6 3,-1 4,-2 7,-4 9,-4 19,-7 30,-8z"/>
  <path class="fil1" d="M132 148c-10,3 -24,-4 -30,-10 0,-18 28,-12 30,10zm14 -38c-2,4 -17,18 -25,17 -8,0 -8,-1 -18,0 -17,3 -20,-5 -28,-1 -1,1 -2,2 -3,3 -2,2 0,1 -3,2 -3,0 -11,-5 -14,-7 -6,-3 -18,-13 -19,-23 -5,-6 -5,-18 -4,-28l-5 2c0,0 0,1 0,1l-2 2c-5,5 -7,8 -10,16 -9,28 3,46 25,60 32,20 80,11 92,-6l5 -3c11,-10 18,-20 23,-34 8,-20 5,-36 0,-56 -1,10 2,41 -14,55z"/>
  <path class="fil2" d="M132 148c-12,17 -60,26 -92,6 -22,-14 -34,-32 -25,-60 3,-8 5,-11 10,-16l2 -2c0,0 0,-1 0,-1l5 -2c-1,10 -1,22 4,28 2,-1 1,0 4,1 8,2 12,4 18,4 20,1 15,2 28,3 13,1 37,0 52,0l8 1c16,-14 13,-45 14,-55 5,20 8,36 0,56 -5,14 -12,24 -23,34l-5 3zm-41 19c-6,0 -12,0 -18,0 -13,-2 -27,-7 -40,-16 -5,-4 -14,-9 -19,-21 -8,-21 -4,-42 13,-55l1 -1c12,-9 30,-5 42,2 13,6 19,15 35,20 41,12 53,-21 48,-58 2,2 0,0 2,2 0,1 0,1 0,1l6 11c2,5 3,10 4,16 9,53 -29,96 -74,99z"/>
  <path class="fil3" d="M114 45c2,-2 0,-1 3,-2 13,-1 27,8 35,4 0,-4 0,-7 -1,-10 -1,0 -2,-2 -2,-3 -2,-2 -1,-2 -3,-2 -7,1 -14,-1 -20,-2 -10,-2 -35,-2 -46,-2 -5,1 -5,2 -10,2 -7,-1 -4,-3 -6,-2 -3,6 -2,8 -8,10 -4,1 -7,1 -11,-1 -5,-2 -12,-10 -12,-18l0 0c-9,4 -23,22 -28,37 -4,14 -8,44 1,55 -1,-35 3,-51 35,-73 14,6 13,1 27,0 14,0 14,9 27,-2 9,2 12,6 19,9z"/>
  <path class="fil4" d="M33 18l0 1 0 0c9,-6 25,6 31,9 2,-1 -1,1 6,2 5,0 5,-1 10,-2 11,0 36,0 46,2 6,1 13,3 20,2 -7,-13 -29,-26 -51,-30 -12,-2 -24,-1 -35,3 -12,3 -19,7 -27,13z"/>
  <path class="fil3" d="M146 110l-8 -1c-15,0 -39,1 -52,0 -13,-1 -8,-2 -28,-3 -6,0 -10,-2 -18,-4 -3,-1 -2,-2 -4,-1 1,10 13,20 19,23 3,2 11,7 14,7 3,-1 1,0 3,-2 1,-1 2,-2 3,-3 8,-4 11,4 28,1 10,-1 10,0 18,0 8,1 23,-13 25,-17z"/>
  <path class="fil5" d="M152 47c-8,4 -22,-5 -35,-4 -3,1 -1,0 -3,2 6,4 12,12 15,20 4,10 5,19 3,29 16,-5 21,-26 20,-47z"/>
  <path class="fil6" d="M132 148c-2,-22 -30,-28 -30,-10 6,6 20,13 30,10z"/>
  <path class="fil7" d="M33 19c0,8 7,16 12,18 4,2 7,2 11,1 6,-2 5,-4 8,-10 -6,-3 -22,-15 -31,-9z"/>
  <ellipse class="fil8" cx="109" cy="74" rx="4" ry="3"/>
  <ellipse class="fil9" cx="55" cy="97" rx="4" ry="3"/>
 </g>
</svg>
