<svg width="29" height="26" xmlns="http://www.w3.org/2000/svg">
  <path d="M15.92 25.852a12.168 12.168 0 0 1-1.392-.35c-.895-.305-2.128-1.16-2.487-1.534l-.323-.338 1.35-4.673c.744-2.57 1.463-4.475 1.545-4.557.122-.121.341-.041 1.187.433 1.759.987 3.165 1.453 5.001 1.325 1.139-.08 1.635-.174 3.262-.62 1.265-.345 1.506-.305 1.55.26.025.335-2.192 7.888-2.5 8.568-.215.476-.49.648-1.624 1.017-1.86.605-3.91.778-5.569.47zm-7.21-3.514c-1.276-.651-1.796-.72-3.188-.72-1.28 0-1.86.098-3.55.607-1.047.315-1.224.34-1.478.203-.163-.087-.288-.257-.288-.392 0-.131.584-2.288 1.298-4.792l1.255-4.377.876-.335c1.716-.655 2.827-.872 4.47-.875 1.345-.002 1.606.032 2.41.312 1.083.401 2.084 1.141 2.605 1.63.16.15-.243 1.377-1.1 4.325-.672 2.31-1.299 4.368-1.394 4.575-.147.321-.229.375-.551.36-.208-.01-.822-.245-1.365-.521zm9.792-7.755c-.814-.216-2.565-1.092-2.955-1.423a4.217 4.217 0 0 1-.383-.394c-.204-.24-.265-.051 1.064-4.654.9-3.12 1.423-4.75 1.544-4.815.13-.07.498.081 1.247.51 1.373.787 2.292 1.13 3.657 1.201 1.382.073 2.526-.112 4.289-.693.78-.257 1.49-.44 1.578-.407.436.168.33.737-.972 5.209-.704 2.42-1.25 4.185-1.323 4.3-.191.306-1 .665-2.275 1.008-1.575.424-4.187.5-5.471.158zm-6.108-3.15c-1.335-.692-2.003-.904-3.316-.973-1.255-.065-2.951.205-4.156.663-.743.283-1.26.29-1.503.023-.172-.19-.084-.379 1.175-4.722L5.956 1.73l.752-.313C8.322.747 9.273.568 11.223.57c1.66 0 1.864.025 2.655.313.472.171 1.042.512 1.537.811.712.43.913.613.966.876.06.302-.424 1.924-2.18 7.925-.257.876-.579 1.395-.863 1.39-.041 0-.466-.204-.944-.452z" fill="#D3D7D9" fill-rule="evenodd"/>
</svg>
